<svg width="29" height="29" viewBox="0 0 29 29" fill="none" xmlns="http://www.w3.org/2000/svg">
<path d="M14.0606 7.0303C14.0606 3.63291 16.8147 0.878784 20.2121 0.878784C23.6095 0.878784 26.3636 3.63291 26.3636 7.0303C26.3636 10.4277 23.6095 13.1818 20.2121 13.1818C16.8147 13.1818 14.0606 10.4277 14.0606 7.0303Z" fill="#DD1C1A"/>
<path d="M14.0606 7.0303C14.0606 3.63291 16.8147 0.878784 20.2121 0.878784C23.6095 0.878784 26.3636 3.63291 26.3636 7.0303C26.3636 10.4277 23.6095 13.1818 20.2121 13.1818C16.8147 13.1818 14.0606 10.4277 14.0606 7.0303Z" fill="#FBA2A2"/>
<path d="M0 19.3333C0 14.4799 3.93447 10.5454 8.78788 10.5454C13.6413 10.5454 17.5758 14.4799 17.5758 19.3333C17.5758 24.1867 13.6413 28.1212 8.78788 28.1212C3.93447 28.1212 0 24.1867 0 19.3333Z" fill="#DD1C1A"/>
<rect x="22.8485" y="14.9394" width="6.15152" height="6.15152" rx="3.07576" fill="#DD1C1A"/>
<rect x="22.8485" y="14.9394" width="6.15152" height="6.15152" rx="3.07576" fill="#FBA2A2"/>
</svg>
