<svg width="115" height="34" viewBox="0 0 115 34" fill="none" xmlns="http://www.w3.org/2000/svg">
<path d="M35.9775 27V22.7959L49.2051 11.2822H36.373V6.87305H57.0127V10.5645L43.1846 22.5908H57.3057V27H35.9775ZM67.6035 6.87305V18.2109C67.6035 18.9629 67.667 19.6465 67.7939 20.2617C67.9209 20.8672 68.1553 21.3896 68.4971 21.8291C68.8389 22.2588 69.3174 22.5957 69.9326 22.8398C70.5479 23.0742 71.3486 23.1914 72.335 23.1914C73.0771 23.1914 73.8535 23.0889 74.6641 22.8838C75.4844 22.6787 76.2949 22.4053 77.0957 22.0635C77.8965 21.7217 78.6582 21.3311 79.3809 20.8916C80.1133 20.4424 80.7676 19.9785 81.3438 19.5V6.87305H86.7637V27H81.3438V24.2461C80.6602 24.6367 79.9326 25.0322 79.1611 25.4326C78.3896 25.8232 77.5693 26.1797 76.7002 26.502C75.8311 26.8145 74.9082 27.0684 73.9316 27.2637C72.9551 27.4688 71.9248 27.5713 70.8408 27.5713C69.4834 27.5713 68.2676 27.4053 67.1934 27.0732C66.1191 26.751 65.2109 26.292 64.4688 25.6963C63.7266 25.0908 63.1553 24.3633 62.7549 23.5137C62.3643 22.6543 62.1689 21.6973 62.1689 20.6426V6.87305H67.6035ZM98.5117 18.3867C98.5117 19.2266 98.5898 19.915 98.7461 20.4521C98.9023 20.9795 99.1562 21.3994 99.5078 21.7119C99.8594 22.0244 100.313 22.2393 100.87 22.3564C101.437 22.4736 102.13 22.5322 102.95 22.5322H113.263V27H101.837C100.255 27 98.9072 26.873 97.7939 26.6191C96.6904 26.3555 95.7871 25.9551 95.084 25.418C94.3809 24.8711 93.8682 24.1826 93.5459 23.3525C93.2334 22.5225 93.0771 21.5361 93.0771 20.3936V6.87305H98.5117V18.3867Z" fill="#DD1C1A"/>
<path d="M14.0606 7.0303C14.0606 3.63291 16.8147 0.878784 20.2121 0.878784C23.6095 0.878784 26.3636 3.63291 26.3636 7.0303C26.3636 10.4277 23.6095 13.1818 20.2121 13.1818C16.8147 13.1818 14.0606 10.4277 14.0606 7.0303Z" fill="#DD1C1A"/>
<path d="M14.0606 7.0303C14.0606 3.63291 16.8147 0.878784 20.2121 0.878784C23.6095 0.878784 26.3636 3.63291 26.3636 7.0303C26.3636 10.4277 23.6095 13.1818 20.2121 13.1818C16.8147 13.1818 14.0606 10.4277 14.0606 7.0303Z" fill="#FBA2A2"/>
<path d="M0 19.3333C0 14.4799 3.93447 10.5454 8.78788 10.5454C13.6413 10.5454 17.5758 14.4799 17.5758 19.3333C17.5758 24.1867 13.6413 28.1212 8.78788 28.1212C3.93447 28.1212 0 24.1867 0 19.3333Z" fill="#DD1C1A"/>
<rect x="22.8485" y="14.9394" width="6.15152" height="6.15152" rx="3.07576" fill="#DD1C1A"/>
<rect x="22.8485" y="14.9394" width="6.15152" height="6.15152" rx="3.07576" fill="#FBA2A2"/>
</svg>
